<svg width="197" height="152" viewBox="0 0 197 152" fill="none" xmlns="http://www.w3.org/2000/svg">
<path d="M3.48438 146.719C2.85938 146.719 2.3125 146.682 1.84375 146.609C1.36458 146.547 0.958333 146.469 0.625 146.375V142.344C0.958333 142.417 1.31771 142.484 1.70312 142.547C2.07812 142.62 2.47917 142.656 2.90625 142.656C3.46875 142.656 3.97396 142.547 4.42188 142.328C4.86979 142.12 5.22396 141.719 5.48438 141.125C5.74479 140.531 5.875 139.677 5.875 138.562V117.156H10.7188V138.531C10.7188 140.49 10.4115 142.068 9.79688 143.266C9.19271 144.474 8.34375 145.349 7.25 145.891C6.16667 146.443 4.91146 146.719 3.48438 146.719ZM31.9688 131.234C31.9688 132.693 31.7708 133.984 31.375 135.109C30.9896 136.234 30.4219 137.188 29.6719 137.969C28.9323 138.74 28.0365 139.323 26.9844 139.719C25.9427 140.115 24.7656 140.312 23.4531 140.312C22.224 140.312 21.0938 140.115 20.0625 139.719C19.0417 139.323 18.151 138.74 17.3906 137.969C16.6406 137.188 16.0573 136.234 15.6406 135.109C15.2344 133.984 15.0312 132.693 15.0312 131.234C15.0312 129.297 15.375 127.656 16.0625 126.312C16.75 124.969 17.7292 123.948 19 123.25C20.2708 122.552 21.7865 122.203 23.5469 122.203C25.1823 122.203 26.6302 122.552 27.8906 123.25C29.1615 123.948 30.1562 124.969 30.875 126.312C31.6042 127.656 31.9688 129.297 31.9688 131.234ZM19.8906 131.234C19.8906 132.38 20.0156 133.344 20.2656 134.125C20.5156 134.906 20.9062 135.495 21.4375 135.891C21.9688 136.286 22.6615 136.484 23.5156 136.484C24.3594 136.484 25.0417 136.286 25.5625 135.891C26.0938 135.495 26.4792 134.906 26.7188 134.125C26.9688 133.344 27.0938 132.38 27.0938 131.234C27.0938 130.078 26.9688 129.12 26.7188 128.359C26.4792 127.589 26.0938 127.01 25.5625 126.625C25.0312 126.24 24.3385 126.047 23.4844 126.047C22.224 126.047 21.3073 126.479 20.7344 127.344C20.1719 128.208 19.8906 129.505 19.8906 131.234ZM40.6719 122.531V140H35.9062V122.531H40.6719ZM38.2969 115.688C39.0052 115.688 39.6146 115.854 40.125 116.188C40.6354 116.51 40.8906 117.12 40.8906 118.016C40.8906 118.901 40.6354 119.516 40.125 119.859C39.6146 120.193 39.0052 120.359 38.2969 120.359C37.5781 120.359 36.9635 120.193 36.4531 119.859C35.9531 119.516 35.7031 118.901 35.7031 118.016C35.7031 117.12 35.9531 116.51 36.4531 116.188C36.9635 115.854 37.5781 115.688 38.2969 115.688ZM55.6094 122.203C57.474 122.203 58.974 122.714 60.1094 123.734C61.2448 124.745 61.8125 126.37 61.8125 128.609V140H57.0469V129.797C57.0469 128.547 56.8177 127.604 56.3594 126.969C55.9115 126.333 55.2031 126.016 54.2344 126.016C52.776 126.016 51.7812 126.51 51.25 127.5C50.7188 128.49 50.4531 129.917 50.4531 131.781V140H45.6875V122.531H49.3281L49.9688 124.766H50.2344C50.6094 124.161 51.0729 123.672 51.625 123.297C52.1875 122.922 52.8073 122.646 53.4844 122.469C54.1719 122.292 54.8802 122.203 55.6094 122.203ZM85.1094 120.859C84.1823 120.859 83.3594 121.042 82.6406 121.406C81.9323 121.76 81.3333 122.276 80.8438 122.953C80.3646 123.63 80 124.448 79.75 125.406C79.5 126.365 79.375 127.443 79.375 128.641C79.375 130.255 79.5729 131.635 79.9688 132.781C80.375 133.917 81 134.786 81.8438 135.391C82.6875 135.984 83.776 136.281 85.1094 136.281C86.0365 136.281 86.9635 136.177 87.8906 135.969C88.8281 135.76 89.8438 135.464 90.9375 135.078V139.141C89.9271 139.557 88.9323 139.854 87.9531 140.031C86.974 140.219 85.875 140.312 84.6562 140.312C82.3021 140.312 80.3646 139.828 78.8438 138.859C77.3333 137.88 76.2135 136.516 75.4844 134.766C74.7552 133.005 74.3906 130.953 74.3906 128.609C74.3906 126.88 74.625 125.297 75.0938 123.859C75.5625 122.422 76.25 121.177 77.1562 120.125C78.0625 119.073 79.1823 118.26 80.5156 117.688C81.849 117.115 83.3802 116.828 85.1094 116.828C86.2448 116.828 87.3802 116.974 88.5156 117.266C89.6615 117.547 90.7552 117.938 91.7969 118.438L90.2344 122.375C89.3802 121.969 88.5208 121.615 87.6562 121.312C86.7917 121.01 85.9427 120.859 85.1094 120.859ZM111.312 131.234C111.312 132.693 111.115 133.984 110.719 135.109C110.333 136.234 109.766 137.188 109.016 137.969C108.276 138.74 107.38 139.323 106.328 139.719C105.286 140.115 104.109 140.312 102.797 140.312C101.568 140.312 100.438 140.115 99.4062 139.719C98.3854 139.323 97.4948 138.74 96.7344 137.969C95.9844 137.188 95.401 136.234 94.9844 135.109C94.5781 133.984 94.375 132.693 94.375 131.234C94.375 129.297 94.7188 127.656 95.4062 126.312C96.0938 124.969 97.0729 123.948 98.3438 123.25C99.6146 122.552 101.13 122.203 102.891 122.203C104.526 122.203 105.974 122.552 107.234 123.25C108.505 123.948 109.5 124.969 110.219 126.312C110.948 127.656 111.312 129.297 111.312 131.234ZM99.2344 131.234C99.2344 132.38 99.3594 133.344 99.6094 134.125C99.8594 134.906 100.25 135.495 100.781 135.891C101.312 136.286 102.005 136.484 102.859 136.484C103.703 136.484 104.385 136.286 104.906 135.891C105.438 135.495 105.823 134.906 106.062 134.125C106.312 133.344 106.438 132.38 106.438 131.234C106.438 130.078 106.312 129.12 106.062 128.359C105.823 127.589 105.438 127.01 104.906 126.625C104.375 126.24 103.682 126.047 102.828 126.047C101.568 126.047 100.651 126.479 100.078 127.344C99.5156 128.208 99.2344 129.505 99.2344 131.234ZM122.609 136.516C123.13 136.516 123.635 136.464 124.125 136.359C124.625 136.255 125.12 136.125 125.609 135.969V139.516C125.099 139.745 124.464 139.932 123.703 140.078C122.953 140.234 122.13 140.312 121.234 140.312C120.193 140.312 119.255 140.146 118.422 139.812C117.599 139.469 116.948 138.88 116.469 138.047C116 137.203 115.766 136.031 115.766 134.531V126.109H113.484V124.094L116.109 122.5L117.484 118.812H120.531V122.531H125.422V126.109H120.531V134.531C120.531 135.198 120.719 135.698 121.094 136.031C121.479 136.354 121.984 136.516 122.609 136.516ZM136.516 136.516C137.036 136.516 137.542 136.464 138.031 136.359C138.531 136.255 139.026 136.125 139.516 135.969V139.516C139.005 139.745 138.37 139.932 137.609 140.078C136.859 140.234 136.036 140.312 135.141 140.312C134.099 140.312 133.161 140.146 132.328 139.812C131.505 139.469 130.854 138.88 130.375 138.047C129.906 137.203 129.672 136.031 129.672 134.531V126.109H127.391V124.094L130.016 122.5L131.391 118.812H134.438V122.531H139.328V126.109H134.438V134.531C134.438 135.198 134.625 135.698 135 136.031C135.385 136.354 135.891 136.516 136.516 136.516ZM150.219 122.172C152.562 122.172 154.359 122.682 155.609 123.703C156.859 124.724 157.484 126.276 157.484 128.359V140H154.156L153.234 137.625H153.109C152.609 138.25 152.099 138.76 151.578 139.156C151.057 139.552 150.458 139.844 149.781 140.031C149.104 140.219 148.281 140.312 147.312 140.312C146.281 140.312 145.354 140.115 144.531 139.719C143.719 139.323 143.078 138.719 142.609 137.906C142.141 137.083 141.906 136.042 141.906 134.781C141.906 132.927 142.557 131.562 143.859 130.688C145.161 129.802 147.115 129.312 149.719 129.219L152.75 129.125V128.359C152.75 127.443 152.51 126.771 152.031 126.344C151.552 125.917 150.885 125.703 150.031 125.703C149.188 125.703 148.359 125.823 147.547 126.062C146.734 126.302 145.922 126.604 145.109 126.969L143.531 123.75C144.458 123.26 145.495 122.875 146.641 122.594C147.797 122.312 148.99 122.172 150.219 122.172ZM152.75 131.906L150.906 131.969C149.365 132.01 148.292 132.286 147.688 132.797C147.094 133.307 146.797 133.979 146.797 134.812C146.797 135.542 147.01 136.062 147.438 136.375C147.865 136.677 148.422 136.828 149.109 136.828C150.13 136.828 150.99 136.526 151.688 135.922C152.396 135.318 152.75 134.458 152.75 133.344V131.906ZM167.516 147.688C165.078 147.688 163.214 147.26 161.922 146.406C160.641 145.562 160 144.375 160 142.844C160 141.792 160.328 140.911 160.984 140.203C161.641 139.495 162.604 138.99 163.875 138.688C163.385 138.479 162.958 138.141 162.594 137.672C162.229 137.193 162.047 136.688 162.047 136.156C162.047 135.49 162.24 134.938 162.625 134.5C163.01 134.052 163.568 133.615 164.297 133.188C163.38 132.792 162.651 132.156 162.109 131.281C161.578 130.406 161.312 129.375 161.312 128.188C161.312 126.917 161.589 125.839 162.141 124.953C162.703 124.057 163.516 123.375 164.578 122.906C165.651 122.438 166.953 122.203 168.484 122.203C168.807 122.203 169.182 122.224 169.609 122.266C170.036 122.307 170.427 122.354 170.781 122.406C171.146 122.458 171.391 122.5 171.516 122.531H177.609V124.953L174.875 125.656C175.125 126.042 175.312 126.453 175.438 126.891C175.562 127.328 175.625 127.792 175.625 128.281C175.625 130.156 174.969 131.62 173.656 132.672C172.354 133.714 170.542 134.234 168.219 134.234C167.667 134.203 167.146 134.161 166.656 134.109C166.417 134.297 166.234 134.495 166.109 134.703C165.984 134.911 165.922 135.13 165.922 135.359C165.922 135.589 166.016 135.781 166.203 135.938C166.401 136.083 166.693 136.198 167.078 136.281C167.474 136.354 167.964 136.391 168.547 136.391H171.516C173.432 136.391 174.891 136.802 175.891 137.625C176.901 138.448 177.406 139.656 177.406 141.25C177.406 143.292 176.552 144.875 174.844 146C173.146 147.125 170.703 147.688 167.516 147.688ZM167.719 144.578C168.854 144.578 169.828 144.469 170.641 144.25C171.464 144.042 172.094 143.74 172.531 143.344C172.969 142.958 173.188 142.495 173.188 141.953C173.188 141.516 173.057 141.167 172.797 140.906C172.547 140.656 172.161 140.479 171.641 140.375C171.13 140.271 170.474 140.219 169.672 140.219H167.203C166.62 140.219 166.094 140.312 165.625 140.5C165.167 140.688 164.802 140.948 164.531 141.281C164.26 141.625 164.125 142.021 164.125 142.469C164.125 143.125 164.438 143.641 165.062 144.016C165.698 144.391 166.583 144.578 167.719 144.578ZM168.484 131.328C169.38 131.328 170.036 131.052 170.453 130.5C170.87 129.948 171.078 129.198 171.078 128.25C171.078 127.198 170.859 126.411 170.422 125.891C169.995 125.359 169.349 125.094 168.484 125.094C167.609 125.094 166.953 125.359 166.516 125.891C166.078 126.411 165.859 127.198 165.859 128.25C165.859 129.198 166.073 129.948 166.5 130.5C166.938 131.052 167.599 131.328 168.484 131.328ZM187.703 122.203C189.318 122.203 190.708 122.516 191.875 123.141C193.042 123.755 193.943 124.651 194.578 125.828C195.214 127.005 195.531 128.443 195.531 130.141V132.453H184.266C184.318 133.797 184.719 134.854 185.469 135.625C186.229 136.385 187.281 136.766 188.625 136.766C189.74 136.766 190.76 136.651 191.688 136.422C192.615 136.193 193.568 135.849 194.547 135.391V139.078C193.682 139.505 192.776 139.818 191.828 140.016C190.891 140.214 189.75 140.312 188.406 140.312C186.656 140.312 185.104 139.99 183.75 139.344C182.406 138.698 181.349 137.714 180.578 136.391C179.818 135.068 179.438 133.401 179.438 131.391C179.438 129.349 179.781 127.651 180.469 126.297C181.167 124.932 182.135 123.911 183.375 123.234C184.615 122.547 186.057 122.203 187.703 122.203ZM187.734 125.594C186.807 125.594 186.036 125.891 185.422 126.484C184.818 127.078 184.469 128.01 184.375 129.281H191.062C191.052 128.573 190.922 127.943 190.672 127.391C190.432 126.839 190.068 126.401 189.578 126.078C189.099 125.755 188.484 125.594 187.734 125.594Z" fill="black"/>
<path d="M118.931 65.0851C117.177 66.0971 115.425 67.1064 113.673 68.1184C110.683 69.8451 108.824 72.5691 108.305 75.9824C107.697 79.9931 104.233 83.0664 100.053 83.0664C95.8719 83.0664 92.4093 79.9931 91.8013 75.9824C91.2839 72.5691 89.4239 69.8451 86.4346 68.1184C84.6813 67.1064 82.9293 66.0971 81.176 65.0851C78.7853 63.7051 76.156 63.5065 73.5853 64.5118C72.7933 64.8198 71.9306 64.9904 71.0293 64.9904C67.1467 64.9904 64 61.8438 64 57.9611C64 55.7398 65.0293 53.7612 66.6373 52.4732C68.7907 50.7478 69.9306 48.3732 69.9306 45.6158V36.2239C69.9306 33.5359 68.852 31.2225 66.7933 29.4945C65.3547 28.2865 64.4387 26.4732 64.4387 24.4466C64.4387 20.8066 67.3893 17.8572 71.0293 17.8572C71.82 17.8572 72.58 17.9959 73.284 18.2519C75.8106 19.1732 78.3546 18.9506 80.684 17.6066C83.152 16.1826 85.6199 14.7572 88.0879 13.3333C90.5653 11.9039 92.0813 9.60659 92.4199 6.7666C92.8759 2.95594 96.1199 -5.34058e-05 100.053 -5.34058e-05C104.3 -5.34058e-05 107.741 3.4426 107.741 7.68792C107.741 11.9346 104.3 15.3773 100.053 15.3773C98.9812 15.3773 97.9599 15.1572 97.0319 14.7599C94.4026 13.6346 91.6559 13.7999 89.1799 15.2292C86.7133 16.6546 84.2453 18.0786 81.7786 19.5039C79.4493 20.8492 77.984 22.9439 77.5186 25.5932C77.2453 27.1505 76.424 28.5185 75.2626 29.4945C73.2053 31.2225 72.1267 33.5359 72.1267 36.2239V45.6158C72.1267 48.3732 73.2666 50.7478 75.42 52.4732C76.7653 53.5518 77.708 55.1145 77.9773 56.8971C78.392 59.6278 79.8786 61.8064 82.2706 63.1864C84.0253 64.1998 85.7746 65.2118 87.5266 66.2238C90.5159 67.9491 93.8026 68.1985 97.0173 66.9411C97.9572 66.5731 98.9826 66.3718 100.053 66.3718C101.125 66.3718 102.149 66.5731 103.091 66.9411C106.305 68.1985 109.591 67.9491 112.58 66.2238C114.332 65.2118 116.081 64.1998 117.836 63.1864C120.228 61.8064 121.715 59.6278 122.129 56.8971C122.641 53.5198 125.559 50.9318 129.078 50.9318C132.96 50.9318 136.108 54.0798 136.108 57.9611C136.108 61.8438 132.96 64.9904 129.078 64.9904C128.176 64.9904 127.315 64.8198 126.521 64.5118C123.951 63.5065 121.321 63.7051 118.931 65.0851ZM129.078 17.8572C125.777 17.8572 123.043 20.2839 122.564 23.4505C121.531 30.2599 109.46 32.9145 103.772 30.8665C102.611 30.4492 101.359 30.2212 100.053 30.2212C93.9879 30.2212 89.0706 35.1385 89.0706 41.2038C89.0706 47.2692 93.9879 52.1878 100.053 52.1878C105.452 52.1878 109.941 48.2905 110.863 43.1598C111.932 37.2078 120.267 28.0785 126.68 30.5852C127.424 30.8759 128.232 31.0359 129.078 31.0359C132.717 31.0359 135.668 28.0852 135.668 24.4466C135.668 20.8066 132.717 17.8572 129.078 17.8572Z" fill="#055AC0"/>
</svg>
